<svg width="121" height="98" viewBox="0 0 121 98" fill="none" xmlns="http://www.w3.org/2000/svg">
<path d="M85.8735 7.84641C89.0415 3.86291 93.7925 0.649913 98.931 0.118413C104.208 -0.466087 109.495 1.12992 113.567 4.53742C118.103 8.36342 120.349 13.5474 120.878 19.3914C121.684 28.3014 113.74 29.0284 108.461 33.3969C99.631 40.7044 92.147 50.3384 86.15 60.1129C85.3025 61.9379 84.407 63.7429 83.4635 65.5179C73.3475 84.7929 54.806 89.3429 40.1255 70.2279C38.517 68.1329 37.592 64.6079 35.269 63.3279C29.991 66.1379 37.7205 83.2829 28.972 92.5029C25.965 95.6879 21.798 97.5179 17.42 97.5779C12.7745 97.7079 8.28953 95.8729 5.06103 92.5329C-1.40197 85.7579 0.169536 73.8779 0.412536 64.9629C3.10754 63.9329 6.96404 62.7129 9.74054 61.9679C42.28 53.2704 63.542 31.8989 85.8735 7.84641Z" fill="#FFFFFF"/>
<path d="M85.8735 7.84641C89.0415 3.86291 93.7925 0.649913 98.931 0.118413C104.208 -0.466087 109.495 1.12992 113.567 4.53742C118.103 8.36342 120.349 13.5474 120.878 19.3914C121.684 28.3014 113.74 29.0284 108.461 33.3969C99.631 40.7044 92.147 50.3384 86.15 60.1129C84.956 56.0029 86.5155 22.9554 85.996 16.6229C85.814 14.4079 86.5865 10.2529 85.8735 7.84641Z" fill="#369CC6"/>
<path d="M0.33702 27.7784C-0.21848 19.9189 -0.795483 12.6429 4.85602 6.32242C8.13102 2.59642 12.763 0.339397 17.7155 0.0563966C24.086 -0.247103 28.9925 2.60542 33.4315 6.80692C40.338 14.0289 46.8575 20.8489 54.1735 27.6389C47.5875 31.8769 40.702 35.6309 33.572 38.8714C29.5075 40.6859 24.8845 42.5479 20.526 43.4774C15.224 45.3419 6.13803 46.4314 0.508528 46.8284C0.210028 40.5169 0.31552 34.1029 0.33702 27.7784Z" fill="#3BA172"/>
<path d="M33.4315 6.80692C40.338 14.0289 46.8575 20.8489 54.1735 27.6389C47.5875 31.8769 40.702 35.6309 33.572 38.8714C33.3765 28.3064 33.5445 17.4354 33.4315 6.80692Z" fill="#48B1AE"/>
<path d="M0.337021 27.7784C5.25752 31.1199 16.13 42.6124 20.526 43.4774C15.224 45.3419 6.13803 46.4314 0.50853 46.8284C0.21003 40.5169 0.315521 34.1029 0.337021 27.7784Z" fill="#338068"/>
<path d="M119.117 41.6299L120.042 41.9334C121.297 45.2704 119.725 65.4929 120.514 70.6629C123.104 87.6379 110.783 106.353 92.6725 93.7979C90.441 91.7829 88.6555 89.4179 87.71 86.6329C85.9535 81.4479 85.855 68.2229 88.503 63.6429C94.14 53.8929 108.739 44.8444 119.117 41.6299Z" fill="#3C74C5"/>
</svg>
