<svg width="709" height="100" viewBox="0 0 709 100" fill="none" xmlns="http://www.w3.org/2000/svg">
<g clip-path="url(#clip0_11_51)">
<path d="M85.907 8.7085C89.075 4.725 93.826 1.512 98.9645 0.980504C104.241 0.396004 109.528 1.99201 113.6 5.39951C118.136 9.22551 120.382 14.4095 120.911 20.2535C121.718 29.1635 113.774 29.8905 108.495 34.259C99.6645 41.5665 92.1805 51.2005 86.1835 60.975C85.336 62.8 84.4405 64.605 83.497 66.38C73.381 85.655 54.8395 90.205 40.159 71.09C38.5505 68.995 37.6255 65.47 35.3025 64.19C30.0245 67 37.754 84.145 29.0055 93.365C25.9985 96.55 21.8315 98.38 17.4535 98.44C12.808 98.57 8.323 96.735 5.0945 93.395C-1.3685 86.62 0.202998 74.74 0.445998 65.825C3.141 64.795 6.9975 63.575 9.774 62.83C42.3135 54.1325 63.5755 32.761 85.907 8.7085Z" fill="#FFFFFF"/>
<path d="M85.907 8.7085C89.075 4.725 93.826 1.512 98.9645 0.980504C104.241 0.396004 109.528 1.99201 113.6 5.39951C118.136 9.22551 120.382 14.4095 120.911 20.2535C121.718 29.1635 113.774 29.8905 108.495 34.259C99.6645 41.5665 92.1805 51.2005 86.1835 60.975C84.9895 56.865 86.549 23.8175 86.0295 17.485C85.8475 15.27 86.62 11.115 85.907 8.7085Z" fill="#369CC6"/>
<path d="M303.415 4.5595C303.88 4.5265 304.345 4.49798 304.81 4.47448C312.199 4.11798 313.029 7.36249 313.05 14.1045C313.076 22.756 312.994 31.418 312.938 40.07C318.774 35.2575 323.482 32.1635 331.496 31.767C339.326 31.3925 346.975 34.204 352.695 39.5605C367.315 53.072 365.915 77.22 352.525 91.235C340.307 101.755 326.858 101.7 313.706 92.805C311.088 97.04 304.7 102.025 300.191 96.025C299.264 94.79 299.082 91.095 299.083 89.4C299.097 62.51 298.905 35.5155 299.344 8.65499C299.371 6.98249 302.142 5.3365 303.415 4.5595Z" fill="#FFFFFF"/>
<path d="M328.526 45.571C353.17 43.934 357.625 77.965 334.7 85.49C311.289 88.985 303.427 51.752 328.526 45.571Z" fill="#0F2A3E"/>
<path d="M580.36 32.2645C598.745 30.3515 615.19 43.718 617.08 62.105C618.965 80.49 605.575 96.92 587.185 98.775C568.835 100.635 552.45 87.275 550.565 68.93C548.685 50.58 562.015 34.1735 580.36 32.2645Z" fill="#369CC6"/>
<path d="M580.395 46.066C605.25 44.3 610.915 77.145 587.68 85.095C563.46 88.115 556.2 53.4495 580.395 46.066Z" fill="#0F2A3E"/>
<path d="M223.762 31.5825C224.914 31.516 226.067 31.4805 227.221 31.4765C235.213 31.506 240.049 35.65 245.236 40.8995C245.649 40.4815 246.066 40.067 246.486 39.6555C256.595 29.7385 273.054 27.8955 283.01 38.9655C285.492 41.749 287.259 45.0955 288.156 48.715C290.134 56.825 288.507 68.805 288.892 77.5C288.665 81.32 290.675 95.28 286.494 97.175C264.227 107.265 281.919 55.145 271.69 48.5255C257.359 39.251 249.315 52.999 250.38 64.76C250.755 68.89 250.323 76.26 250.323 80.875C250.427 86.905 252.187 97.935 244.079 98.535C241.016 98.76 236.369 96.265 236.249 93.04C235.84 82.07 236.61 71.03 236.16 60.045C236.044 52.0185 231.427 44.259 222.756 45.467C202.046 48.352 217.486 84.815 209.071 96.995C208.359 98.025 206.166 98.815 204.999 98.63C195.342 97.71 197.49 90.155 197.522 82.755L197.512 61.515C197.499 54.071 196.945 45.072 197.463 37.8625C198.036 29.893 207.429 29.336 211.279 37.2C216.315 33.7395 217.764 32.775 223.762 31.5825Z" fill="#FFFFFF"/>
<path d="M683.16 75.925C685.425 68.9 693.055 37.151 697.015 33.7655C698.35 32.621 700.415 31.6555 702.215 31.921C704.13 32.2035 707.005 33.6195 707.985 35.388C710.305 39.56 706.025 48.908 704.585 53.346C701.745 61.835 699.02 70.36 696.41 78.92C694.63 84.57 693.325 89.115 690.795 94.5C688.17 100.08 678.51 99.91 676.51 95.335C671.335 83.495 668.29 70.485 663.27 58.435C660.66 65.995 658.13 73.59 655.69 81.21C653.16 88.995 651.265 102.155 640.715 98.505C635.025 96.535 633.345 88.375 631.725 83.215C627.24 68.915 622.03 54.86 618.33 40.366C617.18 35.7705 620.495 33.611 624.07 32.049C627.125 31.9975 630.41 32.59 631.595 35.782C636.475 48.893 638.82 63.215 644.01 76.24L651.875 50.6805C652.485 48.689 655.815 37.1195 656.775 36.0615C668.995 22.524 673.58 46.309 675.06 50.9695L683.16 75.925Z" fill="#369CC6"/>
<path d="M156.711 31.686C165.003 30.9295 172.9 33.2775 179.247 38.688C185.784 44.3605 189.701 52.472 190.078 61.12C190.681 74.1 178.539 71.12 169.214 71.06L142.121 71.02C142.523 72.525 143.024 74.005 143.621 75.445C148.192 86.165 162.123 88.425 171.746 83.48C174.535 82.045 175.935 80.435 179.183 79.22C184.562 80.53 189.389 85.215 184.797 89.625C165.528 108.125 131.61 98.64 128.693 71.015C126.501 50.2645 135.699 34.045 156.711 31.686Z" fill="#FFFFFF"/>
<path d="M154.72 45.069C166.562 44.0205 172.93 47.017 176.333 58.81C172.188 59.04 167.561 58.915 163.375 58.895C156.432 58.925 149.49 58.84 142.551 58.64C144.248 51.064 147.588 47.545 154.72 45.069Z" fill="#0F2A3E"/>
<path d="M395.31 31.623C396.38 31.493 398.255 31.4585 399.355 31.43C407.135 31.218 414.68 34.1215 420.315 39.497C426.79 45.716 436.96 68.89 421.76 70.95C417.905 71.47 411.76 71.135 407.65 71.115L381.975 70.98C385.23 86.85 401.725 89.945 413.92 81.75L417.995 79.04C422.825 80.07 428.65 83.86 424.63 89.325C421.025 94.225 413.6 97.33 407.705 98.475C375.54 104.735 357.615 69.915 374.08 44.299C379.07 36.565 386.38 33.227 395.31 31.623Z" fill="#FFFFFF"/>
<path d="M396.005 44.6045C404.11 44.0685 412.35 47.118 416.04 55.655C416.46 56.62 415.57 57.645 415.02 58.365C412.69 59.14 405.73 58.86 402.91 58.855C395.78 58.915 389.1 58.975 381.985 58.65C384.13 50.47 387.77 46.4525 396.005 44.6045Z" fill="#0F2A3E"/>
<path d="M508.985 4.721C511.265 4.6715 514.175 4.953 516.5 5.1115C523.425 9.7395 523.155 14.582 516.84 19.5945C512.585 19.5675 503.095 17.945 500.685 22.201C488.44 43.9345 531.31 20.439 518.835 44.19C517.18 47.3335 502.605 46.3605 499.04 46.5385C498.855 59.38 499.005 72.585 498.99 85.46C498.995 88.525 499.365 94.25 497.06 96.345C492.675 100.335 485.115 98.545 484.66 92C484.255 86.16 484.425 80.805 484.45 75.13L484.475 46.689C474.5 45.4345 471.33 34.2665 484.885 31.8305C484.98 13.7975 489.82 5.728 508.985 4.721Z" fill="#369CC6"/>
<path d="M0.370497 28.6405C-0.185002 20.781 -0.762005 13.505 4.88949 7.18451C8.16449 3.45851 12.7965 1.20149 17.749 0.918488C24.1195 0.614988 29.026 3.46751 33.465 7.66901C40.3715 14.891 46.891 21.711 54.207 28.501C47.621 32.739 40.7355 36.493 33.6055 39.7335C29.541 41.548 24.918 43.41 20.5595 44.3395C15.2575 46.204 6.17151 47.2935 0.542006 47.6905C0.243506 41.379 0.348997 34.965 0.370497 28.6405Z" fill="#3BA172"/>
<path d="M33.465 7.66901C40.3715 14.891 46.891 21.711 54.207 28.501C47.621 32.739 40.7355 36.493 33.6055 39.7335C33.41 29.1685 33.578 18.2975 33.465 7.66901Z" fill="#48B1AE"/>
<path d="M0.370499 28.6405C5.291 31.982 16.1635 43.4745 20.5595 44.3395C15.2575 46.204 6.17151 47.2935 0.542008 47.6905C0.243508 41.379 0.348999 34.965 0.370499 28.6405Z" fill="#338068"/>
<path d="M119.151 42.492L120.076 42.7955C121.331 46.1325 119.758 66.355 120.547 71.525C123.137 88.5 110.816 107.215 92.706 94.66C90.4745 92.645 88.689 90.28 87.7435 87.495C85.987 82.31 85.8885 69.085 88.5365 64.505C94.1735 54.755 108.773 45.7065 119.151 42.492Z" fill="#3C74C5"/>
<path d="M532.425 4.51599C545.165 3.76449 542.09 15.5675 542.07 25.0155L542.1 61.505C542.1 65.17 541.375 82.075 543.355 84.135C553.565 84.155 552.27 94.495 545.365 98.01C535.405 99.965 527.86 95.345 527.835 84.625C527.78 59.66 527.095 34.1915 527.925 9.24499C528 7.03499 530.69 5.51049 532.425 4.51599Z" fill="#369CC6"/>
<path d="M440.57 32.0705C447.105 31.599 449.32 33.1695 450.705 39.499C455.08 35.356 459.84 32.129 466.1 31.815C473.22 31.4585 475.955 40.761 470.675 45.0625C466.095 48.793 459.47 45.9415 455.29 50.297C449.805 56.345 450.845 66.46 450.935 74.125C451.03 81.01 452.285 91.475 448.095 97.345C445.555 100.905 438.28 97.26 437.755 95.29C435.23 85.8 437.65 73.48 436.78 63.465C436.42 59.105 436.78 56.465 436.72 52.919C436.61 46.8975 436.555 42.051 436.8 36.1825C436.93 34.1125 439.055 33.05 440.57 32.0705Z" fill="#FFFFFF"/>
</g>
<defs>
<clipPath id="clip0_11_51">
<rect width="709" height="100" fill="white"/>
</clipPath>
</defs>
</svg>
